# xmcd
#
# Track frame offsets:
#	150
#	12080
#	33173
#	55874
#	74731
#	101559
#	116550
#	133644
#	162395
#	177832
#	200923
#	223625
#	236963
#	254354
#	265003
#
# Disc length: 3685 seconds
#
# Revision: 1
# Processed by: cddbd v1.5.2PL0 Copyright (c) Steve Scherf et al.
# Submitted via: audiograbber 1.83.01
#
DISCID=de0e630f
DTITLE=Smooch Records - Smooch Records
DYEAR=2006
DGENRE=
TTITLE0=Andrew Douglas Rothbard - Bull In the Dell
TTITLE1=Munly and the Lee Lewis Harlots - Jacob Dumb
TTITLE2=Annik - Get In Line For the Shower
TTITLE3=Sixteen Horsepower - American Wheeze
TTITLE4=Slim Cessna's Auto Club - Jesus Is In My Body
TTITLE5=Jerri Rossi - I Left My Heart But I Don't Know Where
TTITLE6=Maraca Five-O - Tube City, Pakistan
TTITLE7=Jay Munly - The Denver Boot
TTITLE8=Lilium - If They Cheered
TTITLE9=Soul Merchants - Joanna
TTITLE10=The Denver Gentlemen - Blue Parrot
TTITLE11=Jay Munly - All Men Are Divine
TTITLE12=Sixteen Horsepower - Flutter
TTITLE13=Sparkles - Taint With Cinnamon
TTITLE14=Slim Cessna's Auto Club - Angel
EXTD=
EXTT0=
EXTT1=
EXTT2=
EXTT3=
EXTT4=
EXTT5=
EXTT6=
EXTT7=
EXTT8=
EXTT9=
EXTT10=
EXTT11=
EXTT12=
EXTT13=
EXTT14=
PLAYORDER=
